<?xml version="1.0" encoding="utf-8"?>
<svg id="master-artboard" viewBox="0 0 879.532470703125 398.4721984863281" version="1.1" xmlns="http://www.w3.org/2000/svg" x="0px" y="0px" style="enable-background:new 0 0 1400 980;" width="879.532470703125px" height="398.4721984863281px"><rect id="ee-background" x="0" y="0" width="879.532470703125" height="398.4721984863281" style="fill: white; fill-opacity: 0; pointer-events: none;"/><defs><style id="ee-google-fonts">@import url(https://fonts.googleapis.com/css?family=Faster+One:400);</style></defs><path d="M 82.62063598632812 76.77999114990234 C 82.54730224609375 77.08665466308594 82.47063446044922 77.50999450683594 82.39064025878906 78.04998779296875 L 59.810638427734375 75.6399917602539 L 82.8006362915039 75.6399917602539 L 82.62063598632812 76.77999114990234 M 81.99063873291016 81.14999389648438 C 81.87730407714844 82.02999114990234 81.82063293457031 82.83666229248047 81.82063293457031 83.56999206542969 L 59.18063735961914 81.14999389648438 L 81.99063873291016 81.14999389648438 M 84.17063903808594 70.1199951171875 L 83.48063659667969 72.4699935913086 L 61.190635681152344 70.1199951171875 L 84.17063903808594 70.1199951171875 M 81.8806381225586 86.66999053955078 C 82.03397369384766 87.74332427978516 82.16730499267578 88.54666137695312 82.2806396484375 89.07999420166016 L 59.93063735961914 86.66999053955078 L 81.8806381225586 86.66999053955078 M 86.5306396484375 64.59999084472656 C 85.99730682373047 65.59999084472656 85.61396789550781 66.36666107177734 85.3806381225586 66.89999389648438 L 63.8906364440918 64.59999084472656 L 86.5306396484375 64.59999084472656 M 83.60063934326172 92.239990234375 C 84.10063934326172 93.1199951171875 84.6739730834961 93.82999420166016 85.32063293457031 94.3699951171875 L 65.44063568115234 92.239990234375 L 83.60063934326172 92.239990234375 M 91.99063873291016 59.08999252319336 C 90.87730407714844 59.77666091918945 90.01396942138672 60.40665817260742 89.400634765625 60.9799919128418 L 71.82064056396484 59.08999252319336 L 91.99063873291016 59.08999252319336 M 97.0506362915039 95.85999298095703 C 92.22396850585938 95.85999298095703 88.76396942138672 94.92332458496094 86.67063903808594 93.04999542236328 C 84.58396911621094 91.16999053955078 83.54063415527344 88.27665710449219 83.54063415527344 84.3699951171875 C 83.54063415527344 82.72332763671875 83.81063842773438 80.28999328613281 84.35063934326172 77.06999206542969 C 85.49730682373047 70.48332214355469 87.47730255126953 65.6966552734375 90.29063415527344 62.709991455078125 C 93.11064147949219 59.71665954589844 97.56397247314453 58.219993591308594 103.650634765625 58.219993591308594 C 105.07063293457031 58.219993591308594 106.69063568115234 58.36665725708008 108.51063537597656 58.65999221801758 C 110.33064270019531 58.946659088134766 111.66063690185547 59.299991607666016 112.50064086914062 59.719993591308594 L 109.2806396484375 68.50999450683594 C 107.02063751220703 67.9766616821289 104.90730285644531 67.70999145507812 102.94063568115234 67.70999145507812 C 100.96730041503906 67.70999145507812 99.55730438232422 67.89999389648438 98.71063995361328 68.27999114990234 C 97.87063598632812 68.65998840332031 97.35397338867188 69.4266586303711 97.16063690185547 70.57999420166016 L 94.52063751220703 85.62998962402344 C 95.900634765625 85.93666076660156 97.31730651855469 86.08999633789062 98.77063751220703 86.08999633789062 C 101.87063598632812 86.08999633789062 104.70397186279297 85.62998962402344 107.27063751220703 84.70999145507812 L 106.35063171386719 94.3699951171875 C 103.90396881103516 95.36332702636719 100.80397033691406 95.85999298095703 97.0506362915039 95.85999298095703 ZM 137.1661834716797 94.99999237060547 L 138.94618225097656 84.47999572753906 L 132.50619506835938 84.47999572753906 L 130.6761932373047 94.99999237060547 L 121.01618957519531 94.99999237060547 L 126.30619049072266 64.59999084472656 L 136.0161895751953 64.59999084472656 L 134.11618041992188 75.1199951171875 L 140.61618041992188 75.1199951171875 L 142.45619201660156 64.59999084472656 L 152.1661834716797 64.59999084472656 L 146.81619262695312 94.99999237060547 L 137.1661834716797 94.99999237060547 M 119.12619018554688 94.82999420166016 L 94.75618743896484 92.239990234375 L 119.58618927001953 92.239990234375 L 119.12619018554688 94.82999420166016 M 121.07618713378906 83.739990234375 L 96.7161865234375 81.14999389648438 L 121.53618621826172 81.14999389648438 L 121.07618713378906 83.739990234375 M 122.05619049072266 78.2199935913086 L 97.68618774414062 75.6399917602539 L 122.51618957519531 75.6399917602539 L 122.05619049072266 78.2199935913086 M 123.02618408203125 72.69999694824219 L 98.66619110107422 70.1199951171875 L 123.48619079589844 70.1199951171875 L 123.02618408203125 72.69999694824219 M 124.00618743896484 67.18999481201172 L 99.64618682861328 64.59999084472656 L 124.40618896484375 64.59999084472656 L 124.00618743896484 67.18999481201172 M 120.09619140625 89.24999237060547 L 95.73619079589844 86.66999053955078 L 120.55619049072266 86.66999053955078 L 120.09619140625 89.24999237060547 ZM 182.3437957763672 94.99999237060547 L 182.12379455566406 90.34999084472656 L 174.87379455566406 90.34999084472656 L 173.0937957763672 94.99999237060547 L 163.15379333496094 94.99999237060547 L 175.91378784179688 64.59999084472656 L 190.16378784179688 64.59999084472656 L 192.40379333496094 94.99999237060547 L 182.3437957763672 94.99999237060547 M 182.12379455566406 82.12998962402344 L 182.12379455566406 73.3899917602539 L 181.3137969970703 73.3899917602539 L 177.92379760742188 82.12998962402344 L 182.12379455566406 82.12998962402344 M 161.3137969970703 94.76998901367188 L 137.75379943847656 92.239990234375 L 162.41378784179688 92.239990234375 L 161.3137969970703 94.76998901367188 M 163.67379760742188 89.19998931884766 L 140.11380004882812 86.66999053955078 L 164.7637939453125 86.66999053955078 L 163.67379760742188 89.19998931884766 M 166.03379821777344 83.67999267578125 L 142.4738006591797 81.14999389648438 L 167.0637969970703 81.14999389648438 L 166.03379821777344 83.67999267578125 M 168.32379150390625 78.15998840332031 L 144.82379150390625 75.6399917602539 L 169.42379760742188 75.6399917602539 L 168.32379150390625 78.15998840332031 M 170.6837921142578 72.64999389648438 L 147.1837921142578 70.1199951171875 L 171.7137908935547 70.1199951171875 L 170.6837921142578 72.64999389648438 M 172.98379516601562 67.06999206542969 L 149.53379821777344 64.59999084472656 L 174.0137939453125 64.59999084472656 L 172.98379516601562 67.06999206542969 ZM 205.92506408691406 83.739990234375 L 181.5650634765625 81.14999389648438 L 206.38507080078125 81.14999389648438 L 205.92506408691406 83.739990234375 M 206.90505981445312 78.2199935913086 L 182.53506469726562 75.6399917602539 L 207.3650665283203 75.6399917602539 L 206.90505981445312 78.2199935913086 M 207.87506103515625 72.69999694824219 L 183.5150604248047 70.1199951171875 L 208.33506774902344 70.1199951171875 L 207.87506103515625 72.69999694824219 M 208.85507202148438 67.18999481201172 L 184.4950714111328 64.59999084472656 L 209.25506591796875 64.59999084472656 L 208.85507202148438 67.18999481201172 M 205.695068359375 86.66999053955078 L 205.695068359375 87.81999206542969 C 205.695068359375 88.46665954589844 205.71505737304688 88.94332885742188 205.75506591796875 89.24999237060547 L 181.38507080078125 86.66999053955078 L 205.695068359375 86.66999053955078 M 207.93505859375 94.82999420166016 L 183.5750732421875 92.239990234375 L 206.2650604248047 92.239990234375 C 206.6917266845703 93.31332397460938 207.24839782714844 94.1766586303711 207.93505859375 94.82999420166016 M 219.71505737304688 86.95999145507812 C 220.74839782714844 86.95999145507812 221.46839904785156 86.83332824707031 221.87506103515625 86.57999420166016 C 222.2750701904297 86.33332824707031 222.55172729492188 85.72999572753906 222.70506286621094 84.76998901367188 L 226.3250732421875 64.59999084472656 L 235.97506713867188 64.59999084472656 L 232.9850616455078 81.72999572753906 C 232.0717315673828 87.08999633789062 230.58839416503906 90.75666046142578 228.53506469726562 92.72999572753906 C 226.4884033203125 94.70332336425781 222.99172973632812 95.68999481201172 218.04505920410156 95.68999481201172 C 214.10507202148438 95.68999481201172 211.34840393066406 95.10665893554688 209.7750701904297 93.93999481201172 C 208.2017364501953 92.76666259765625 207.41506958007812 90.7266616821289 207.41506958007812 87.81999206542969 C 207.41506958007812 86.20665740966797 207.62840270996094 84.1766586303711 208.05506896972656 81.72999572753906 L 211.09506225585938 64.59999084472656 L 220.7450714111328 64.59999084472656 L 216.84506225585938 86.95999145507812 L 219.71505737304688 86.95999145507812 ZM 262.2532653808594 94.99999237060547 L 264.03326416015625 84.47999572753906 L 257.59326171875 84.47999572753906 L 255.7632598876953 94.99999237060547 L 246.10325622558594 94.99999237060547 L 251.39324951171875 64.59999084472656 L 261.1032409667969 64.59999084472656 L 259.2032470703125 75.1199951171875 L 265.7032470703125 75.1199951171875 L 267.5432434082031 64.59999084472656 L 277.2532653808594 64.59999084472656 L 271.90325927734375 94.99999237060547 L 262.2532653808594 94.99999237060547 M 244.2132568359375 94.82999420166016 L 219.84326171875 92.239990234375 L 244.67324829101562 92.239990234375 L 244.2132568359375 94.82999420166016 M 246.1632537841797 83.739990234375 L 221.80325317382812 81.14999389648438 L 246.62326049804688 81.14999389648438 L 246.1632537841797 83.739990234375 M 247.14324951171875 78.2199935913086 L 222.77325439453125 75.6399917602539 L 247.60325622558594 75.6399917602539 L 247.14324951171875 78.2199935913086 M 248.11325073242188 72.69999694824219 L 223.7532501220703 70.1199951171875 L 248.57325744628906 70.1199951171875 L 248.11325073242188 72.69999694824219 M 249.09326171875 67.18999481201172 L 224.73326110839844 64.59999084472656 L 249.49325561523438 64.59999084472656 L 249.09326171875 67.18999481201172 M 245.18325805664062 89.24999237060547 L 220.82325744628906 86.66999053955078 L 245.64324951171875 86.66999053955078 L 245.18325805664062 89.24999237060547 ZM 307.43084716796875 94.99999237060547 L 307.2108459472656 90.34999084472656 L 299.9608459472656 90.34999084472656 L 298.18084716796875 94.99999237060547 L 288.2408447265625 94.99999237060547 L 301.0008544921875 64.59999084472656 L 315.2508544921875 64.59999084472656 L 317.4908447265625 94.99999237060547 L 307.43084716796875 94.99999237060547 M 307.2108459472656 82.12998962402344 L 307.2108459472656 73.3899917602539 L 306.4008483886719 73.3899917602539 L 303.0108337402344 82.12998962402344 L 307.2108459472656 82.12998962402344 M 286.4008483886719 94.76998901367188 L 262.8408508300781 92.239990234375 L 287.5008544921875 92.239990234375 L 286.4008483886719 94.76998901367188 M 288.7608337402344 89.19998931884766 L 265.2008361816406 86.66999053955078 L 289.8508605957031 86.66999053955078 L 288.7608337402344 89.19998931884766 M 291.120849609375 83.67999267578125 L 267.56085205078125 81.14999389648438 L 292.1508483886719 81.14999389648438 L 291.120849609375 83.67999267578125 M 293.4108581542969 78.15998840332031 L 269.9108581542969 75.6399917602539 L 294.5108337402344 75.6399917602539 L 293.4108581542969 78.15998840332031 M 295.7708435058594 72.64999389648438 L 272.2708435058594 70.1199951171875 L 296.80084228515625 70.1199951171875 L 295.7708435058594 72.64999389648438 M 298.07086181640625 67.06999206542969 L 274.620849609375 64.59999084472656 L 299.100830078125 64.59999084472656 L 298.07086181640625 67.06999206542969 ZM 348.7721252441406 94.99999237060547 L 342.85211181640625 83.6199951171875 L 342.62213134765625 83.6199951171875 L 340.61212158203125 94.99999237060547 L 330.9521179199219 94.99999237060547 L 336.24212646484375 64.59999084472656 L 344.0521240234375 64.59999084472656 L 350.0321044921875 75.91999053955078 L 350.37213134765625 75.91999053955078 L 352.3321228027344 64.59999084472656 L 361.922119140625 64.59999084472656 L 356.5821228027344 94.99999237060547 L 348.7721252441406 94.99999237060547 M 329.0621032714844 94.82999420166016 L 304.6921081542969 92.239990234375 L 329.5221252441406 92.239990234375 L 329.0621032714844 94.82999420166016 M 331.0121154785156 83.739990234375 L 306.6521301269531 81.14999389648438 L 331.47210693359375 81.14999389648438 L 331.0121154785156 83.739990234375 M 331.99212646484375 78.2199935913086 L 307.62213134765625 75.6399917602539 L 332.4521179199219 75.6399917602539 L 331.99212646484375 78.2199935913086 M 332.9621276855469 72.69999694824219 L 308.60211181640625 70.1199951171875 L 333.422119140625 70.1199951171875 L 332.9621276855469 72.69999694824219 M 333.9421081542969 67.18999481201172 L 309.5821228027344 64.59999084472656 L 334.34210205078125 64.59999084472656 L 333.9421081542969 67.18999481201172 M 330.0321044921875 89.24999237060547 L 305.672119140625 86.66999053955078 L 330.49212646484375 86.66999053955078 L 330.0321044921875 89.24999237060547 ZM 386.66815185546875 72.69999694824219 L 362.29815673828125 70.1199951171875 L 387.06817626953125 70.1199951171875 C 386.87481689453125 70.88665771484375 386.7414855957031 71.74665832519531 386.66815185546875 72.69999694824219 M 388.6181640625 64.59999084472656 L 387.7581787109375 67.12998962402344 L 363.9081726074219 64.59999084472656 L 388.6181640625 64.59999084472656 M 386.66815185546875 75.6399917602539 C 386.7414855957031 76.67332458496094 386.8915100097656 77.5333251953125 387.1181640625 78.2199935913086 L 362.81817626953125 75.6399917602539 L 386.66815185546875 75.6399917602539 M 394.7081604003906 83.739990234375 L 364.30816650390625 81.14999389648438 L 389.0781555175781 81.14999389648438 C 390.3381652832031 82.37666320800781 392.21484375 83.239990234375 394.7081604003906 83.739990234375 M 392.92816162109375 59.08999252319336 C 392.04815673828125 59.663326263427734 391.204833984375 60.446659088134766 390.3981628417969 61.43999099731445 L 368.2181701660156 59.08999252319336 L 392.92816162109375 59.08999252319336 M 363.3381652832031 86.66999053955078 L 384.8281555175781 86.66999053955078 L 383.9581604003906 89.19998931884766 L 363.3381652832031 86.66999053955078 M 362.358154296875 92.239990234375 L 382.9881591796875 92.239990234375 L 382.128173828125 94.76998901367188 L 362.358154296875 92.239990234375 M 387.29815673828125 84.8899917602539 C 390.5115051269531 85.76998901367188 393.4515075683594 86.20999145507812 396.1181640625 86.20999145507812 C 398.7781677246094 86.20999145507812 400.9515075683594 86.09332275390625 402.6381530761719 85.85999298095703 L 403.0981750488281 82.989990234375 L 398.3281555175781 82.52999114990234 C 394.68817138671875 82.1833267211914 392.11151123046875 81.35999298095703 390.5981750488281 80.05998992919922 C 389.0848388671875 78.75999450683594 388.3281555175781 76.91999053955078 388.3281555175781 74.53999328613281 C 388.3281555175781 73.50666046142578 388.44482421875 72.35999298095703 388.67816162109375 71.09999084472656 C 389.55816650390625 66.19332885742188 391.1648254394531 62.81999206542969 393.4981689453125 60.9799919128418 C 395.8381652832031 59.139991760253906 399.4314880371094 58.219993591308594 404.2781677246094 58.219993591308594 C 409.12481689453125 58.219993591308594 413.40484619140625 58.69999313354492 417.1181640625 59.65999221801758 L 414.128173828125 68.84999084472656 C 410.7948303222656 68.27665710449219 408.12481689453125 67.989990234375 406.1181640625 67.989990234375 C 404.1048278808594 67.989990234375 402.3714904785156 68.08665466308594 400.91815185546875 68.27999114990234 L 400.4581604003906 71.09999084472656 L 404.30816650390625 71.49999237060547 C 408.21484375 71.91999053955078 410.9914855957031 72.84999084472656 412.6381530761719 74.28999328613281 C 414.2848205566406 75.72332763671875 415.108154296875 77.64665985107422 415.108154296875 80.05998992919922 C 415.108154296875 82.5133285522461 414.59149169921875 85.03999328613281 413.55816650390625 87.6399917602539 C 412.9848327636719 88.98665618896484 412.3815002441406 90.10999298095703 411.7481689453125 91.00999450683594 C 411.1148376464844 91.90999603271484 410.30816650390625 92.67332458496094 409.3281555175781 93.29999542236328 C 408.3548278808594 93.9333267211914 407.46484375 94.41332244873047 406.6581726074219 94.739990234375 C 405.858154296875 95.06665802001953 404.8248291015625 95.30665588378906 403.55816650390625 95.45999145507812 C 401.79815673828125 95.7266616821289 399.6148376464844 95.85999298095703 397.0081787109375 95.85999298095703 C 392.25482177734375 95.85999298095703 387.94482421875 95.36332702636719 384.0781555175781 94.3699951171875 L 387.29815673828125 84.8899917602539 ZM 452.1835632324219 73.2199935913086 L 445.97357177734375 73.2199935913086 L 442.1835632324219 94.99999237060547 L 432.0735778808594 94.99999237060547 L 435.8635559082031 73.2199935913086 L 429.4835510253906 73.2199935913086 L 431.0335693359375 64.59999084472656 L 453.73358154296875 64.59999084472656 L 452.1835632324219 73.2199935913086 M 430.34356689453125 94.82999420166016 L 405.9835510253906 92.239990234375 L 430.8035583496094 92.239990234375 L 430.34356689453125 94.82999420166016 M 432.3035583496094 83.739990234375 L 407.9335632324219 81.14999389648438 L 432.7635498046875 81.14999389648438 L 432.3035583496094 83.739990234375 M 433.2735595703125 78.2199935913086 L 408.91357421875 75.6399917602539 L 433.7335510253906 75.6399917602539 L 433.2735595703125 78.2199935913086 M 427.7635498046875 72.69999694824219 L 403.3935546875 70.1199951171875 L 428.22357177734375 70.1199951171875 L 427.7635498046875 72.69999694824219 M 428.7335510253906 67.18999481201172 L 404.3735656738281 64.59999084472656 L 429.1435546875 64.59999084472656 L 428.7335510253906 67.18999481201172 M 431.3235778808594 89.24999237060547 L 406.96356201171875 86.66999053955078 L 431.7835693359375 86.66999053955078 L 431.3235778808594 89.24999237060547 ZM 479.66790771484375 64.02999114990234 C 483.8012390136719 64.02999114990234 486.7512512207031 64.82332611083984 488.5179138183594 66.40998840332031 C 490.27789306640625 68.00332641601562 491.15789794921875 70.48332214355469 491.15789794921875 73.84999084472656 C 491.15789794921875 75.49665832519531 490.9479064941406 77.489990234375 490.52789306640625 79.82999420166016 C 489.5679016113281 85.34332275390625 487.8812255859375 89.36666107177734 485.4678955078125 91.89999389648438 C 483.0545654296875 94.4266586303711 479.26123046875 95.68999481201172 474.0879211425781 95.68999481201172 C 470.02789306640625 95.68999481201172 467.1379089355469 94.89332580566406 465.41790771484375 93.29999542236328 C 463.6912536621094 91.71332550048828 462.8279113769531 89.25332641601562 462.8279113769531 85.91999053955078 C 462.8279113769531 84.19998931884766 463.03790283203125 82.16999053955078 463.4579162597656 79.82999420166016 C 464.41790771484375 74.31665802001953 466.0845642089844 70.30332946777344 468.4579162597656 67.78999328613281 C 470.8379211425781 65.2833251953125 474.5745849609375 64.02999114990234 479.66790771484375 64.02999114990234 M 475.7579040527344 86.95999145507812 C 476.8712463378906 86.95999145507812 477.70458984375 86.82332611083984 478.2579040527344 86.54999542236328 C 478.8112487792969 86.2833251953125 479.1845703125 85.68999481201172 479.3778991699219 84.76998901367188 L 481.55792236328125 72.75999450683594 L 478.05792236328125 72.75999450683594 C 476.9845886230469 72.75999450683594 476.1512451171875 72.89332580566406 475.55792236328125 73.15998840332031 C 474.9645690917969 73.4333267211914 474.6112365722656 74.00999450683594 474.4978942871094 74.8899917602539 L 472.367919921875 86.95999145507812 L 475.7579040527344 86.95999145507812 M 461.4479064941406 81.14999389648438 C 461.2945861816406 82.33666229248047 461.20123291015625 83.14332580566406 461.16790771484375 83.56999206542969 L 438.52789306640625 81.14999389648438 L 461.4479064941406 81.14999389648438 M 462.53790283203125 75.6399917602539 L 462.02789306640625 78.04998779296875 L 439.55792236328125 75.6399917602539 L 462.53790283203125 75.6399917602539 M 461.10791015625 86.66999053955078 C 461.10791015625 87.2833251953125 461.1845703125 88.08666229248047 461.3379211425781 89.07999420166016 L 438.7579040527344 86.66999053955078 L 461.10791015625 86.66999053955078 M 464.55792236328125 70.1199951171875 C 464.097900390625 71.11332702636719 463.771240234375 71.87998962402344 463.5779113769531 72.41999053955078 L 441.85791015625 70.1199951171875 L 464.55792236328125 70.1199951171875 M 462.30792236328125 92.239990234375 C 462.7679138183594 93.15999603271484 463.2679138183594 93.8699951171875 463.80792236328125 94.3699951171875 L 443.7478942871094 92.239990234375 L 462.30792236328125 92.239990234375 M 469.54791259765625 64.59999084472656 C 468.63458251953125 65.1399917602539 467.8512268066406 65.77332305908203 467.1979064941406 66.49999237060547 L 449.55792236328125 64.59999084472656 L 469.54791259765625 64.59999084472656 ZM 524.095947265625 64.59999084472656 C 529.6892700195312 64.59999084472656 532.4859619140625 67.12998962402344 532.4859619140625 72.18999481201172 C 532.4859619140625 74.489990234375 532.0259399414062 76.87332153320312 531.10595703125 79.33999633789062 C 530.192626953125 81.81332397460938 528.642578125 83.66332244873047 526.4559326171875 84.8899917602539 L 529.7359619140625 94.99999237060547 L 518.9859619140625 94.99999237060547 L 516.8059692382812 86.14999389648438 L 515.4259643554688 86.14999389648438 L 513.8759155273438 94.99999237060547 L 504.2159423828125 94.99999237060547 L 509.5059509277344 64.59999084472656 L 524.095947265625 64.59999084472656 M 521.9759521484375 74.53999328613281 C 521.9759521484375 74.50666046142578 521.9959716796875 74.31665802001953 522.0359497070312 73.9699935913086 C 522.0359497070312 73.31665802001953 521.019287109375 72.989990234375 518.9859619140625 72.989990234375 L 517.7259521484375 72.989990234375 L 516.8059692382812 78.27999114990234 L 518.6459350585938 78.27999114990234 C 520.4059448242188 78.27999114990234 521.3992919921875 77.70332336425781 521.6259155273438 76.54998779296875 L 521.9759521484375 74.53999328613281 M 502.325927734375 94.82999420166016 L 477.9559326171875 92.239990234375 L 502.78594970703125 92.239990234375 L 502.325927734375 94.82999420166016 M 504.27593994140625 83.739990234375 L 479.91595458984375 81.14999389648438 L 504.7359313964844 81.14999389648438 L 504.27593994140625 83.739990234375 M 505.2559509277344 78.2199935913086 L 480.8859558105469 75.6399917602539 L 505.7159423828125 75.6399917602539 L 505.2559509277344 78.2199935913086 M 506.2259521484375 72.69999694824219 L 481.8659362792969 70.1199951171875 L 506.6859436035156 70.1199951171875 L 506.2259521484375 72.69999694824219 M 507.2059326171875 67.18999481201172 L 482.845947265625 64.59999084472656 L 507.6059265136719 64.59999084472656 L 507.2059326171875 67.18999481201172 M 503.2959289550781 89.24999237060547 L 478.9359436035156 86.66999053955078 L 503.7559509277344 86.66999053955078 L 503.2959289550781 89.24999237060547 ZM 564.513427734375 82.64999389648438 L 555.9534301757812 82.64999389648438 L 555.263427734375 86.54999542236328 L 565.8934326171875 86.54999542236328 L 564.4034423828125 94.99999237060547 L 544.1134033203125 94.99999237060547 L 549.4034423828125 64.59999084472656 L 569.6334228515625 64.59999084472656 L 566.9234619140625 73.2199935913086 L 557.5634155273438 73.2199935913086 L 556.8734130859375 77.12998962402344 L 565.493408203125 77.12998962402344 L 564.513427734375 82.64999389648438 M 542.2234497070312 94.82999420166016 L 517.8534545898438 92.239990234375 L 542.6834106445312 92.239990234375 L 542.2234497070312 94.82999420166016 M 544.1734619140625 83.739990234375 L 519.8134155273438 81.14999389648438 L 544.6334228515625 81.14999389648438 L 544.1734619140625 83.739990234375 M 545.1534423828125 78.2199935913086 L 520.783447265625 75.6399917602539 L 545.6134033203125 75.6399917602539 L 545.1534423828125 78.2199935913086 M 546.1234130859375 72.69999694824219 L 521.763427734375 70.1199951171875 L 546.5834350585938 70.1199951171875 L 546.1234130859375 72.69999694824219 M 547.1034545898438 67.18999481201172 L 522.743408203125 64.59999084472656 L 547.50341796875 64.59999084472656 L 547.1034545898438 67.18999481201172 M 543.1934204101562 89.24999237060547 L 518.8334350585938 86.66999053955078 L 543.6534423828125 86.66999053955078 L 543.1934204101562 89.24999237060547 Z" transform="matrix(1.6001226902008057, 0, 0, 1.6001226902008057, -80.0305404663086, -11.276226043701172)" style="fill: rgb(150, 95, 53); white-space: pre; color: rgb(51, 51, 51); stroke: rgb(0, 0, 0); stroke-width: 0; paint-order: fill;"/></svg>